<?xml version="1.0" encoding="UTF-8"?>
<svg width="800" height="200" viewBox="0 0 800 200" fill="none" xmlns="http://www.w3.org/2000/svg">
  <defs>
    <linearGradient id="featureGradient1" x1="0%" y1="0%" x2="100%" y2="100%">
      <stop offset="0%" style="stop-color:#00ff88;stop-opacity:1" />
      <stop offset="100%" style="stop-color:#00cc6a;stop-opacity:1" />
    </linearGradient>
    <linearGradient id="featureGradient2" x1="0%" y1="0%" x2="100%" y2="100%">
      <stop offset="0%" style="stop-color:#0088ff;stop-opacity:1" />
      <stop offset="100%" style="stop-color:#00ff88;stop-opacity:1" />
    </linearGradient>
    <linearGradient id="featureGradient3" x1="0%" y1="0%" x2="100%" y2="100%">
      <stop offset="0%" style="stop-color:#ff8800;stop-opacity:1" />
      <stop offset="100%" style="stop-color:#00ff88;stop-opacity:1" />
    </linearGradient>
    <linearGradient id="featureGradient4" x1="0%" y1="0%" x2="100%" y2="100%">
      <stop offset="0%" style="stop-color:#8800ff;stop-opacity:1" />
      <stop offset="100%" style="stop-color:#00ff88;stop-opacity:1" />
    </linearGradient>
  </defs>
  
  <!-- Feature 1: Precision Mining -->
  <g transform="translate(50, 50)">
    <rect x="0" y="0" width="120" height="100" fill="rgba(0,255,136,0.1)" stroke="rgba(0,255,136,0.3)" stroke-width="1" rx="12"/>
    <path d="M20 40 L40 20 L50 30 L70 10 L80 20 L50 50 L40 40 L20 70 L10 60 Z" fill="url(#featureGradient1)" stroke="#00ff88" stroke-width="1"/>
    <text x="60" y="80" font-family="JetBrains Mono, monospace" font-size="12" font-weight="600" fill="#00ff88" text-anchor="middle">PRECISION</text>
    <text x="60" y="95" font-family="JetBrains Mono, monospace" font-size="12" font-weight="600" fill="#00ff88" text-anchor="middle">MINING</text>
  </g>
  
  <!-- Feature 2: Cross-Chain Bridge -->
  <g transform="translate(220, 50)">
    <rect x="0" y="0" width="120" height="100" fill="rgba(0,136,255,0.1)" stroke="rgba(0,136,255,0.3)" stroke-width="1" rx="12"/>
    <path d="M10 60 Q60 20 110 60" stroke="url(#featureGradient2)" stroke-width="3" fill="none"/>
    <rect x="8" y="60" width="4" height="20" fill="#0088ff" opacity="0.8"/>
    <rect x="108" y="60" width="4" height="20" fill="#0088ff" opacity="0.8"/>
    <rect x="58" y="25" width="4" height="55" fill="#00ff88" opacity="0.9"/>
    <circle cx="20" cy="58" r="4" fill="#0088ff" opacity="0.6"/>
    <circle cx="100" cy="58" r="4" fill="#0088ff" opacity="0.6"/>
    <circle cx="60" cy="23" r="4" fill="#00ff88" opacity="0.8"/>
    <text x="60" y="95" font-family="JetBrains Mono, monospace" font-size="12" font-weight="600" fill="#0088ff" text-anchor="middle">CROSS-CHAIN</text>
  </g>
  
  <!-- Feature 3: Professional Trading -->
  <g transform="translate(390, 50)">
    <rect x="0" y="0" width="120" height="100" fill="rgba(255,136,0,0.1)" stroke="rgba(255,136,0,0.3)" stroke-width="1" rx="12"/>
    <path d="M10 70 L25 55 L35 65 L50 40 L65 50 L80 25 L100 35" stroke="url(#featureGradient3)" stroke-width="2" fill="none"/>
    <path d="M10 70 L25 55 L35 65 L50 40 L65 50 L80 25 L100 35 L100 80 L10 80 Z" fill="url(#featureGradient3)" opacity="0.2"/>
    <circle cx="25" cy="55" r="2" fill="#ff8800"/>
    <circle cx="35" cy="65" r="2" fill="#ff8800"/>
    <circle cx="50" cy="40" r="2" fill="#00ff88"/>
    <circle cx="65" cy="50" r="2" fill="#ff8800"/>
    <circle cx="80" cy="25" r="2" fill="#00ff88"/>
    <circle cx="100" cy="35" r="2" fill="#ff8800"/>
    <text x="60" y="95" font-family="JetBrains Mono, monospace" font-size="12" font-weight="600" fill="#ff8800" text-anchor="middle">TRADING</text>
  </g>
  
  <!-- Feature 4: AI Analytics -->
  <g transform="translate(560, 50)">
    <rect x="0" y="0" width="120" height="100" fill="rgba(136,0,255,0.1)" stroke="rgba(136,0,255,0.3)" stroke-width="1" rx="12"/>
    <rect x="15" y="60" width="8" height="20" fill="#8800ff" opacity="0.8"/>
    <rect x="27" y="55" width="8" height="25" fill="#8800ff" opacity="0.9"/>
    <rect x="39" y="50" width="8" height="30" fill="url(#featureGradient4)"/>
    <rect x="51" y="45" width="8" height="35" fill="#00ff88" opacity="0.9"/>
    <rect x="63" y="50" width="8" height="30" fill="#8800ff" opacity="0.8"/>
    <rect x="75" y="55" width="8" height="25" fill="#8800ff" opacity="0.7"/>
    <rect x="87" y="60" width="8" height="20" fill="#8800ff" opacity="0.6"/>
    <circle cx="20" cy="20" r="2" fill="#8800ff" opacity="0.8"/>
    <circle cx="35" cy="15" r="2" fill="#8800ff" opacity="0.6"/>
    <circle cx="50" cy="10" r="2" fill="#00ff88" opacity="0.8"/>
    <circle cx="65" cy="15" r="2" fill="#8800ff" opacity="0.6"/>
    <circle cx="80" cy="20" r="2" fill="#8800ff" opacity="0.8"/>
    <line x1="20" y1="20" x2="35" y2="15" stroke="rgba(136,0,255,0.3)" stroke-width="1"/>
    <line x1="35" y1="15" x2="50" y2="10" stroke="rgba(0,255,136,0.4)" stroke-width="1"/>
    <line x1="50" y1="10" x2="65" y2="15" stroke="rgba(136,0,255,0.3)" stroke-width="1"/>
    <line x1="65" y1="15" x2="80" y2="20" stroke="rgba(136,0,255,0.3)" stroke-width="1"/>
    <text x="60" y="95" font-family="JetBrains Mono, monospace" font-size="12" font-weight="600" fill="#8800ff" text-anchor="middle">AI ANALYTICS</text>
  </g>
  
  <!-- Mathematical Precision Lines -->
  <line x1="0" y1="170" x2="800" y2="170" stroke="rgba(0,255,136,0.3)" stroke-width="2"/>
  <line x1="0" y1="175" x2="700" y2="175" stroke="rgba(0,255,136,0.2)" stroke-width="1"/>
  <line x1="0" y1="180" x2="600" y2="180" stroke="rgba(0,255,136,0.1)" stroke-width="1"/>
  
  <!-- Precision Indicators -->
  <g transform="translate(720, 20)">
    <circle cx="10" cy="10" r="2" fill="#00ff88" opacity="0.8"/>
    <circle cx="25" cy="10" r="2" fill="#00ff88" opacity="0.6"/>
    <circle cx="40" cy="10" r="2" fill="#00ff88" opacity="0.4"/>
    <circle cx="55" cy="10" r="2" fill="#00ff88" opacity="0.6"/>
    <circle cx="70" cy="10" r="2" fill="#00ff88" opacity="0.8"/>
  </g>
  
  <!-- "N=" integration -->
  <text x="750" y="190" font-family="JetBrains Mono, monospace" font-size="16" font-weight="700" fill="#00ff88" opacity="0.6">N=</text>
</svg>