<?xml version="1.0" encoding="UTF-8"?>
<svg width="32" height="32" viewBox="0 0 32 32" fill="none" xmlns="http://www.w3.org/2000/svg">
  <defs>
    <linearGradient id="tradingGradient" x1="0%" y1="0%" x2="100%" y2="100%">
      <stop offset="0%" style="stop-color:#ff8800;stop-opacity:1" />
      <stop offset="100%" style="stop-color:#00ff88;stop-opacity:1" />
    </linearGradient>
  </defs>
  
  <!-- Trading chart line -->
  <path d="M2 24 L8 18 L12 22 L16 12 L20 16 L24 8 L30 14" stroke="url(#tradingGradient)" stroke-width="2" fill="none"/>
  
  <!-- Trading chart area -->
  <path d="M2 24 L8 18 L12 22 L16 12 L20 16 L24 8 L30 14 L30 28 L2 28 Z" fill="url(#tradingGradient)" opacity="0.2"/>
  
  <!-- Data points -->
  <circle cx="8" cy="18" r="1.5" fill="#ff8800"/>
  <circle cx="12" cy="22" r="1.5" fill="#ff8800"/>
  <circle cx="16" cy="12" r="1.5" fill="#00ff88"/>
  <circle cx="20" cy="16" r="1.5" fill="#ff8800"/>
  <circle cx="24" cy="8" r="1.5" fill="#00ff88"/>
  <circle cx="30" cy="14" r="1.5" fill="#ff8800"/>
  
  <!-- Mathematical precision grid -->
  <line x1="0" y1="8" x2="32" y2="8" stroke="rgba(255,136,0,0.2)" stroke-width="0.5"/>
  <line x1="0" y1="16" x2="32" y2="16" stroke="rgba(255,136,0,0.2)" stroke-width="0.5"/>
  <line x1="0" y1="24" x2="32" y2="24" stroke="rgba(255,136,0,0.2)" stroke-width="0.5"/>
  
  <!-- "=" integration -->
  <rect x="28" y="2" width="3" height="1" fill="#ff8800" opacity="0.7"/>
  <rect x="28" y="4" width="3" height="1" fill="#ff8800" opacity="0.7"/>
</svg>