<?xml version="1.0" encoding="UTF-8"?>
<svg width="32" height="32" viewBox="0 0 32 32" fill="none" xmlns="http://www.w3.org/2000/svg">
  <defs>
    <linearGradient id="analyticsGradient" x1="0%" y1="0%" x2="100%" y2="100%">
      <stop offset="0%" style="stop-color:#8800ff;stop-opacity:1" />
      <stop offset="100%" style="stop-color:#00ff88;stop-opacity:1" />
    </linearGradient>
  </defs>
  
  <!-- Analytics bars -->
  <rect x="4" y="20" width="3" height="8" fill="#8800ff" opacity="0.8"/>
  <rect x="9" y="16" width="3" height="12" fill="#8800ff" opacity="0.9"/>
  <rect x="14" y="12" width="3" height="16" fill="url(#analyticsGradient)"/>
  <rect x="19" y="8" width="3" height="20" fill="#00ff88" opacity="0.9"/>
  <rect x="24" y="14" width="3" height="14" fill="#8800ff" opacity="0.8"/>
  
  <!-- AI/ML indicators -->
  <circle cx="6" cy="6" r="1" fill="#8800ff" opacity="0.8"/>
  <circle cx="12" cy="4" r="1" fill="#8800ff" opacity="0.6"/>
  <circle cx="18" cy="2" r="1" fill="#00ff88" opacity="0.8"/>
  <circle cx="24" cy="4" r="1" fill="#8800ff" opacity="0.6"/>
  <circle cx="30" cy="6" r="1" fill="#8800ff" opacity="0.8"/>
  
  <!-- Neural network connections -->
  <line x1="6" y1="6" x2="12" y2="4" stroke="rgba(136,0,255,0.3)" stroke-width="1"/>
  <line x1="12" y1="4" x2="18" y2="2" stroke="rgba(0,255,136,0.4)" stroke-width="1"/>
  <line x1="18" y1="2" x2="24" y2="4" stroke="rgba(136,0,255,0.3)" stroke-width="1"/>
  <line x1="24" y1="4" x2="30" y2="6" stroke="rgba(136,0,255,0.3)" stroke-width="1"/>
  
  <!-- Mathematical precision baseline -->
  <line x1="0" y1="28" x2="32" y2="28" stroke="rgba(0,255,136,0.3)" stroke-width="1"/>
  <line x1="0" y1="30" x2="32" y2="30" stroke="rgba(0,255,136,0.2)" stroke-width="1"/>
  
  <!-- "=" integration -->
  <rect x="28" y="26" width="3" height="1" fill="#8800ff" opacity="0.7"/>
  <rect x="28" y="28" width="3" height="1" fill="#8800ff" opacity="0.7"/>
</svg>