<?xml version="1.0" encoding="UTF-8"?>
<svg width="32" height="32" viewBox="0 0 32 32" fill="none" xmlns="http://www.w3.org/2000/svg">
  <defs>
    <linearGradient id="performanceGradient" x1="0%" y1="0%" x2="100%" y2="100%">
      <stop offset="0%" style="stop-color:#ffffff;stop-opacity:1" />
      <stop offset="50%" style="stop-color:#00ff88;stop-opacity:1" />
      <stop offset="100%" style="stop-color:#0088ff;stop-opacity:1" />
    </linearGradient>
  </defs>
  
  <!-- Performance speedometer -->
  <circle cx="16" cy="18" r="12" stroke="url(#performanceGradient)" stroke-width="2" fill="none"/>
  
  <!-- Performance indicators -->
  <line x1="16" y1="6" x2="16" y2="10" stroke="#00ff88" stroke-width="2"/>
  <line x1="24.5" y1="9.5" x2="22.5" y2="11.5" stroke="#00ff88" stroke-width="2"/>
  <line x1="28" y1="18" x2="24" y2="18" stroke="#00ff88" stroke-width="2"/>
  <line x1="24.5" y1="26.5" x2="22.5" y2="24.5" stroke="#00ff88" stroke-width="2"/>
  <line x1="16" y1="30" x2="16" y2="26" stroke="#00ff88" stroke-width="2"/>
  <line x1="7.5" y1="26.5" x2="9.5" y2="24.5" stroke="#00ff88" stroke-width="2"/>
  <line x1="4" y1="18" x2="8" y2="18" stroke="#00ff88" stroke-width="2"/>
  <line x1="7.5" y1="9.5" x2="9.5" y2="11.5" stroke="#00ff88" stroke-width="2"/>
  
  <!-- Performance needle -->
  <line x1="16" y1="18" x2="22" y2="12" stroke="#00ff88" stroke-width="3"/>
  <circle cx="16" cy="18" r="2" fill="#00ff88"/>
  
  <!-- Speed indicators -->
  <circle cx="22" cy="12" r="1" fill="#00ff88" opacity="0.8"/>
  <circle cx="24" cy="10" r="1" fill="#00ff88" opacity="0.6"/>
  <circle cx="26" cy="8" r="1" fill="#00ff88" opacity="0.4"/>
  
  <!-- Mathematical precision lines -->
  <line x1="0" y1="30" x2="32" y2="30" stroke="rgba(0,255,136,0.3)" stroke-width="1"/>
  
  <!-- "=" integration -->
  <rect x="28" y="2" width="3" height="1" fill="#00ff88" opacity="0.7"/>
  <rect x="28" y="4" width="3" height="1" fill="#00ff88" opacity="0.7"/>
</svg>