<?xml version="1.0" encoding="UTF-8"?>
<svg width="32" height="32" viewBox="0 0 32 32" fill="none" xmlns="http://www.w3.org/2000/svg">
  <defs>
    <linearGradient id="yieldGradient" x1="0%" y1="0%" x2="100%" y2="100%">
      <stop offset="0%" style="stop-color:#00ff88;stop-opacity:1" />
      <stop offset="100%" style="stop-color:#00cc6a;stop-opacity:1" />
    </linearGradient>
  </defs>
  
  <!-- Yield growth arrow -->
  <path d="M6 26 L16 6 L26 26" stroke="url(#yieldGradient)" stroke-width="3" fill="none"/>
  <path d="M16 6 L20 12 L12 12 Z" fill="url(#yieldGradient)"/>
  
  <!-- Yield percentage indicators -->
  <circle cx="8" cy="24" r="2" fill="#00ff88" opacity="0.7"/>
  <circle cx="16" cy="12" r="2" fill="#00ff88" opacity="0.9"/>
  <circle cx="24" cy="24" r="2" fill="#00ff88" opacity="0.7"/>
  
  <!-- Yield multiplier bars -->
  <rect x="4" y="28" width="4" height="2" fill="#00ff88" opacity="0.6"/>
  <rect x="8" y="26" width="4" height="4" fill="#00ff88" opacity="0.7"/>
  <rect x="12" y="24" width="4" height="6" fill="#00ff88" opacity="0.8"/>
  <rect x="16" y="22" width="4" height="8" fill="#00ff88" opacity="0.9"/>
  <rect x="20" y="24" width="4" height="6" fill="#00ff88" opacity="0.8"/>
  <rect x="24" y="26" width="4" height="4" fill="#00ff88" opacity="0.7"/>
  
  <!-- Mathematical precision grid -->
  <line x1="0" y1="30" x2="32" y2="30" stroke="rgba(0,255,136,0.3)" stroke-width="1"/>
  <line x1="16" y1="0" x2="16" y2="32" stroke="rgba(0,255,136,0.2)" stroke-width="0.5"/>
  
  <!-- "=" integration -->
  <rect x="28" y="2" width="3" height="1" fill="#00ff88" opacity="0.7"/>
  <rect x="28" y="4" width="3" height="1" fill="#00ff88" opacity="0.7"/>
</svg>