<?xml version="1.0" encoding="UTF-8"?>
<svg width="80" height="80" viewBox="0 0 80 80" fill="none" xmlns="http://www.w3.org/2000/svg">
  <defs>
    <linearGradient id="monogramGradient" x1="0%" y1="0%" x2="100%" y2="100%">
      <stop offset="0%" style="stop-color:#ffffff;stop-opacity:1" />
      <stop offset="50%" style="stop-color:#00ff88;stop-opacity:1" />
      <stop offset="100%" style="stop-color:#00cc6a;stop-opacity:1" />
    </linearGradient>
    <filter id="monoGlow">
      <feGaussianBlur stdDeviation="2" result="coloredBlur"/>
      <feMerge> 
        <feMergeNode in="coloredBlur"/>
        <feMergeNode in="SourceGraphic"/>
      </feMerge>
    </filter>
  </defs>
  
  <!-- Computational grid background -->
  <defs>
    <pattern id="monoGrid" width="4" height="4" patternUnits="userSpaceOnUse">
      <path d="M 4 0 L 0 0 0 4" fill="none" stroke="rgba(255,255,255,0.05)" stroke-width="1"/>
    </pattern>
  </defs>
  <rect width="80" height="80" fill="url(#monoGrid)" opacity="0.4"/>
  
  <!-- Main "N=" monogram -->
  <text x="40" y="55" font-family="JetBrains Mono, monospace" font-size="36" font-weight="700" fill="url(#monogramGradient)" filter="url(#monoGlow)" text-anchor="middle">N=</text>
  
  <!-- Precision indicators -->
  <circle cx="12" cy="12" r="1" fill="#00ff88" opacity="0.8"/>
  <circle cx="68" cy="12" r="1" fill="#00ff88" opacity="0.6"/>
  <circle cx="12" cy="68" r="1" fill="#00ff88" opacity="0.4"/>
  <circle cx="68" cy="68" r="1" fill="#00ff88" opacity="0.7"/>
  
  <!-- Mathematical precision lines -->
  <line x1="10" y1="20" x2="70" y2="20" stroke="rgba(0,255,136,0.2)" stroke-width="1"/>
  <line x1="10" y1="60" x2="70" y2="60" stroke="rgba(0,255,136,0.2)" stroke-width="1"/>
  <line x1="20" y1="10" x2="20" y2="70" stroke="rgba(0,255,136,0.2)" stroke-width="1"/>
  <line x1="60" y1="10" x2="60" y2="70" stroke="rgba(0,255,136,0.2)" stroke-width="1"/>
  
  <!-- Computational accent corners -->
  <rect x="5" y="5" width="8" height="2" fill="#00ff88" opacity="0.6"/>
  <rect x="5" y="73" width="8" height="2" fill="#00ff88" opacity="0.6"/>
  <rect x="67" y="5" width="8" height="2" fill="#00ff88" opacity="0.6"/>
  <rect x="67" y="73" width="8" height="2" fill="#00ff88" opacity="0.6"/>
  
  <!-- Central focus point -->
  <circle cx="40" cy="40" r="1" fill="#00ff88" opacity="0.3"/>
</svg>